<?xml version="1.0" standalone="no"?>
<!DOCTYPE svg PUBLIC "-//W3C//DTD SVG 20010904//EN"
 "http://www.w3.org/TR/2001/REC-SVG-20010904/DTD/svg10.dtd">
<svg version="1.0" xmlns="http://www.w3.org/2000/svg"
 width="1043.000000pt" height="1043.000000pt" viewBox="0 0 1043.000000 1043.000000"
 preserveAspectRatio="xMidYMid meet">
<metadata>
Created by potrace 1.14, written by Peter Selinger 2001-2017
</metadata>
<g transform="translate(0.000000,1043.000000) scale(0.100000,-0.100000)"
fill="#000000" stroke="none">
<path d="M4965 10403 c-742 -43 -1384 -210 -2030 -528 -1533 -755 -2604 -2234
-2834 -3915 -37 -274 -45 -401 -45 -720 0 -319 8 -446 45 -720 135 -986 574
-1940 1241 -2698 721 -817 1707 -1399 2766 -1631 159 -35 165 -34 201 30 19
33 165 658 365 1559 150 674 181 1181 106 1690 -72 479 -203 826 -515 1366
-286 491 -530 866 -758 1162 l-79 103 -57 -8 c-31 -4 -126 -8 -211 -7 -132 0
-171 5 -260 27 -226 56 -406 155 -573 316 -466 448 -498 1193 -72 1678 153
175 330 293 538 363 130 42 182 51 342 57 171 6 282 -7 398 -45 l58 -20 26 52
c14 28 93 193 175 366 l149 315 -41 96 -41 96 -42 -14 c-28 -10 -68 -14 -123
-11 -120 6 -210 52 -320 161 -95 96 -109 130 -78 194 34 67 32 67 562 114 454
39 486 41 517 26 45 -21 70 -62 70 -112 -1 -66 -24 -88 -148 -140 -96 -40
-205 -91 -215 -100 -2 -2 16 -48 39 -104 l43 -101 35 5 c20 3 142 14 271 25
129 11 334 29 455 40 121 11 409 36 640 56 231 19 425 37 431 39 7 2 -18 82
-68 210 -89 231 -91 250 -37 304 22 23 43 32 80 37 67 9 111 40 128 90 13 37
12 44 -5 80 -13 26 -32 45 -58 58 -38 19 -44 19 -230 2 -265 -23 -278 -22
-319 14 -19 16 -39 47 -46 70 -24 79 -26 80 -238 78 -104 -1 -210 -3 -238 -5z"/>
<path d="M6399 10248 c-32 -27 -40 -49 -49 -131 -13 -129 -71 -227 -166 -283
-37 -22 -42 -28 -35 -47 54 -140 374 -964 377 -969 2 -3 28 0 57 8 165 44 398
39 587 -11 535 -144 910 -631 910 -1185 0 -340 -134 -649 -383 -888 -131 -124
-272 -212 -437 -270 -103 -36 -168 -50 -306 -65 l-106 -12 -64 -120 c-172
-324 -459 -1022 -627 -1525 -132 -394 -185 -754 -174 -1174 13 -463 106 -903
296 -1394 56 -147 677 -1633 715 -1711 6 -13 23 -33 38 -44 l27 -20 118 48
c758 306 1489 841 2003 1465 25 30 53 64 64 75 41 45 204 269 291 400 957
1449 1121 3285 436 4883 -616 1437 -1847 2514 -3364 2943 -149 42 -185 46
-208 27z"/>
<path d="M5130 9141 c-713 -64 -854 -80 -852 -92 3 -11 551 -1280 556 -1285 0
-1 19 -5 41 -8 l40 -7 345 428 c190 235 457 566 593 735 l248 308 -58 -1 c-32
-1 -443 -36 -913 -78z"/>
<path d="M6163 8903 c-77 -93 -1039 -1288 -1046 -1299 -4 -6 1 -33 9 -59 36
-104 -1 -242 -85 -318 -51 -46 -83 -62 -151 -76 -106 -22 -210 16 -288 104
-42 48 -64 54 -153 39 l-36 -6 -7 -86 c-16 -206 -92 -416 -219 -601 -69 -101
-203 -233 -310 -305 -71 -49 -85 -62 -77 -76 26 -48 554 -832 670 -994 180
-252 252 -339 341 -414 274 -231 620 -223 857 19 78 79 133 167 227 361 141
293 565 1244 565 1267 0 5 -17 15 -37 22 -21 6 -69 27 -108 46 -289 144 -511
392 -619 693 -191 531 15 1133 492 1438 40 26 80 52 89 58 15 10 13 21 -21
110 -51 137 -46 133 -93 77z m-801 -3254 c304 -102 395 -484 169 -710 -209
-208 -556 -150 -687 116 -70 143 -55 313 39 441 108 147 308 211 479 153z"/>
<path d="M4027 8799 c-24 -52 -81 -173 -127 -269 -76 -158 -81 -175 -65 -185
58 -34 161 -119 231 -191 154 -156 254 -338 314 -573 l12 -44 71 6 c52 4 75
11 82 23 6 9 22 35 36 57 27 40 27 40 9 81 -411 947 -513 1181 -516 1185 -2 2
-23 -39 -47 -90z"/>
<path d="M6710 8536 c-49 -8 -64 -15 -62 -26 3 -14 60 -162 259 -679 70 -183
74 -197 64 -232 -33 -111 -185 -122 -231 -16 -10 23 -87 220 -170 437 -84 217
-156 399 -161 404 -13 14 -120 -64 -209 -153 -440 -444 -316 -1185 245 -1463
117 -59 138 -63 188 -39 23 11 57 23 74 27 47 9 129 -14 177 -51 40 -30 46
-32 97 -25 393 55 709 361 778 754 14 77 14 235 0 312 -24 140 -89 286 -180
407 -194 257 -553 399 -869 343z"/>
<path d="M3085 8220 c-392 -43 -706 -324 -802 -718 -21 -89 -22 -292 0 -388
60 -273 245 -509 492 -629 134 -66 216 -86 378 -92 l137 -6 54 51 c30 29 70
55 93 62 39 12 124 10 153 -3 21 -10 124 54 206 127 160 143 275 363 299 574
6 56 5 62 -12 62 -10 0 -220 -18 -467 -40 -500 -44 -496 -44 -536 22 -39 65
-57 19 304 778 41 85 71 158 67 163 -25 26 -256 49 -366 37z"/>
<path d="M3665 8038 c-7 -18 -72 -156 -144 -307 -72 -151 -129 -276 -127 -278
4 -5 677 55 682 60 5 5 -30 110 -56 171 -33 77 -108 187 -173 254 -59 60 -147
132 -161 132 -4 0 -13 -15 -21 -32z"/>
<path d="M5437 2450 c-99 -31 -142 -114 -202 -385 -24 -110 -125 -571 -226
-1025 -100 -454 -182 -847 -182 -873 -1 -36 4 -53 21 -70 22 -22 24 -22 365
-21 473 1 785 35 1208 135 142 33 152 -19 -124 636 -290 688 -422 1002 -522
1246 -87 211 -135 294 -194 332 -43 29 -101 39 -144 25z"/>
</g>
</svg>
